# xmcd
#
# Track frame offsets:
#	150
#	10426
#	18190
#	29559
#	39173
#	47101
#	64743
#	84805
#	92073
#	100595
#	112231
#	137392
#	153909
#	157549
#	165733
#	174443
#	187699
#	197266
#	206718
#	243804
#	250837
#
# Disc length: 3423 seconds
#
# Revision: 1
# Processed by: cddbd v1.5.2PL0 Copyright (c) Steve Scherf et al.
# Submitted via: audiograbber 1.83.01
#
DISCID=f10d5d15
DTITLE=DIE OFFIZIELLE POLKAKAPELLE - Der offizielle Durchbruch
DYEAR=1995
DGENRE=Polka
TTITLE0=Rosamunde 1
TTITLE1=Einmarsch
TTITLE2=Beautyful America
TTITLE3=Maria
TTITLE4=Gummi Mambo
TTITLE5=Swoboda
TTITLE6=Play me the Polka for me
TTITLE7=Kukidant Polka
TTITLE8=Annerosa
TTITLE9=Bayerische Polka
TTITLE10=Bill Bailey
TTITLE11=Ring of fire
TTITLE12=Forelle Blau
TTITLE13=Fischerin vom Bodensee
TTITLE14=In einem gelben Unterseeboot
TTITLE15=Beat Box Jodler
TTITLE16=Avanti Populo
TTITLE17=Kein Bier auf Hawaii
TTITLE18=Schewadnadses Augen
TTITLE19=Zen Polka
TTITLE20=Rosamunde 2
EXTD=
EXTT0=
EXTT1=
EXTT2=
EXTT3=
EXTT4=
EXTT5=
EXTT6=
EXTT7=
EXTT8=
EXTT9=
EXTT10=
EXTT11=
EXTT12=
EXTT13=
EXTT14=
EXTT15=
EXTT16=
EXTT17=
EXTT18=
EXTT19=
EXTT20=
PLAYORDER=
